<svg xmlns="http://www.w3.org/2000/svg" xmlns:xlink="http://www.w3.org/1999/xlink" width="1080" zoomAndPan="magnify" viewBox="0 0 810 809.999993" height="1080" preserveAspectRatio="xMidYMid meet" version="1.2"><g id="3ec92b8e9c"><path style=" stroke:none;fill-rule:evenodd;fill:#283593;fill-opacity:1;" d="M 383.800781 7.410156 C 396.828125 0.0976562 412.871094 0.0976562 425.878906 7.410156 C 490.25 43.550781 683.957031 152.34375 748.347656 188.488281 C 761.375 195.78125 769.394531 209.292969 769.394531 223.921875 C 769.394531 296.207031 769.394531 513.773438 769.394531 586.058594 C 769.394531 600.6875 761.375 614.199219 748.347656 621.511719 C 683.976562 657.65625 490.269531 766.449219 425.878906 802.589844 C 412.851562 809.902344 396.8125 809.902344 383.800781 802.589844 C 319.429688 766.449219 125.722656 657.65625 61.332031 621.511719 C 48.324219 614.199219 40.304688 600.707031 40.304688 586.078125 C 40.304688 513.792969 40.304688 296.226562 40.304688 223.941406 C 40.304688 209.3125 48.324219 195.800781 61.351562 188.488281 C 125.703125 152.34375 319.449219 43.550781 383.800781 7.410156 Z M 383.800781 7.410156 "/><path style=" stroke:none;fill-rule:evenodd;fill:#5c6bc0;fill-opacity:1;" d="M 46.136719 604.699219 C 41.03125 597.863281 40.304688 591.375 40.304688 582.644531 C 40.304688 510.78125 40.304688 294.460938 40.304688 222.578125 C 40.304688 208.027344 48.304688 194.59375 61.292969 187.335938 C 125.433594 151.40625 318.492188 43.246094 382.632812 7.292969 C 395.621094 0.0195312 413.214844 0.171875 426.203125 7.449219 C 490.34375 43.378906 682.75 150.617188 746.890625 186.550781 C 752.070312 189.46875 756.023438 192.980469 759.554688 197.605469 Z M 46.136719 604.699219 "/><path style=" stroke:none;fill-rule:evenodd;fill:#ffffff;fill-opacity:1;" d="M 404.851562 136.28125 C 553.105469 136.28125 673.464844 256.683594 673.464844 405 C 673.464844 553.316406 553.105469 673.71875 404.851562 673.71875 C 256.59375 673.71875 136.238281 553.316406 136.238281 405 C 136.238281 256.683594 256.59375 136.28125 404.851562 136.28125 Z M 404.851562 270.640625 C 478.96875 270.640625 539.15625 330.832031 539.15625 405 C 539.15625 479.148438 478.96875 539.359375 404.851562 539.359375 C 330.730469 539.359375 270.542969 479.148438 270.542969 405 C 270.542969 330.832031 330.710938 270.640625 404.851562 270.640625 Z M 404.851562 270.640625 "/><path style=" stroke:none;fill-rule:evenodd;fill:#3949ab;fill-opacity:1;" d="M 759.515625 197.796875 C 769.414062 207.066406 769.222656 221.042969 769.222656 232.039062 C 769.222656 304.882812 768.609375 512.066406 769.394531 584.910156 C 769.472656 592.507812 766.960938 600.511719 763.199219 606.539062 L 397.042969 405 Z M 759.515625 197.796875 "/></g></svg>