<svg xmlns="http://www.w3.org/2000/svg" xmlns:xlink="http://www.w3.org/1999/xlink" width="1080" zoomAndPan="magnify" viewBox="0 0 810 809.999993" height="1080" preserveAspectRatio="xMidYMid meet" version="1.2"><g id="af951ee90d"><path style=" stroke:none;fill-rule:nonzero;fill:#ffffff;fill-opacity:1;" d="M 628.027344 217.433594 C 590.8125 -44.132812 219.195312 -44.214844 181.960938 217.4375 C -61.015625 233.472656 -56.097656 583.753906 188.171875 592.003906 C 188.167969 592.003906 285.679688 592.003906 285.679688 592.003906 C 321 591.765625 320.851562 538.320312 285.675781 538.132812 C 285.679688 538.132812 188.167969 538.132812 188.167969 538.132812 C 114.648438 538.132812 54.835938 478.316406 54.835938 404.796875 C 54.339844 322.824219 127.511719 263.070312 207.292969 271.203125 C 222.179688 271.199219 234.226562 259.152344 234.226562 244.265625 C 242.203125 18.683594 567.757812 18.59375 575.761719 244.265625 C 575.757812 259.152344 587.808594 271.199219 602.695312 271.199219 C 682.425781 263.085938 755.703125 322.816406 755.152344 404.800781 C 755.152344 478.316406 695.335938 538.132812 621.816406 538.132812 L 524.308594 538.132812 C 489.035156 538.207031 489.140625 591.921875 524.308594 592.003906 C 524.308594 592.003906 621.816406 592.003906 621.816406 592.003906 C 865.921875 583.800781 871.164062 233.535156 628.027344 217.433594 Z M 628.027344 217.433594 "/><path style=" stroke:none;fill-rule:nonzero;fill:#ffffff;fill-opacity:1;" d="M 489.875 656.265625 L 431.929688 714.210938 L 431.929688 336.722656 C 431.832031 301.710938 378.199219 301.328125 378.058594 336.726562 C 378.058594 336.722656 378.058594 714.210938 378.058594 714.210938 L 320.109375 656.265625 C 295.171875 631.464844 257.179688 669.34375 282.023438 694.355469 C 282.023438 694.351562 385.949219 798.28125 385.949219 798.28125 C 393.53125 805.960938 405.414062 808.269531 415.304688 804.121094 C 417.136719 808.589844 524.65625 696.195312 527.96875 694.351562 C 552.722656 669.34375 514.921875 631.457031 489.875 656.265625 Z M 489.875 656.265625 "/></g></svg>