<svg xmlns="http://www.w3.org/2000/svg" xmlns:xlink="http://www.w3.org/1999/xlink" width="1080" zoomAndPan="magnify" viewBox="0 0 810 809.999993" height="1080" preserveAspectRatio="xMidYMid meet" version="1.2"><g id="a1eee0efc0"><path style=" stroke:none;fill-rule:nonzero;fill:#4e7896;fill-opacity:1;" d="M 302.667969 620.269531 C 302.667969 620.269531 271.832031 639.023438 324.105469 644.390625 C 387.035156 652.414062 420.554688 651.085938 490.203125 637.695312 C 504.238281 646.289062 518.96875 653.433594 534.40625 659.132812 C 377.707031 726.125 179.390625 655.121094 302.644531 620.269531 Z M 282.613281 533.199219 C 282.613281 533.199219 249.117188 558.644531 301.367188 564.035156 C 369.6875 570.730469 423.265625 572.058594 515.726562 553.332031 C 520.222656 557.890625 525.1875 561.867188 530.617188 565.261719 C 536.050781 568.652344 541.800781 571.371094 547.871094 573.414062 C 358.980469 629.671875 147.324219 578.777344 282.613281 533.222656 Z M 652.34375 685.882812 C 652.34375 685.882812 675.109375 704.636719 626.894531 719.378906 C 537.140625 746.207031 250.46875 754.230469 170.089844 719.378906 C 141.960938 707.34375 195.539062 689.921875 212.710938 687.238281 C 230.136719 683.226562 239.539062 683.226562 239.539062 683.226562 C 208.699219 661.789062 34.578125 727.425781 151.136719 746.15625 C 471.300781 798.40625 735.203125 723.390625 652.140625 685.882812 Z M 317.160156 442.085938 C 317.160156 442.085938 171.144531 476.9375 264.910156 488.972656 C 305.101562 494.335938 384.128906 492.984375 457.8125 487.644531 C 518.085938 482.277344 578.40625 471.597656 578.40625 471.597656 C 578.40625 471.597656 556.96875 480.972656 542.226562 490.351562 C 393.554688 529.210938 108.1875 511.785156 189.921875 471.597656 C 259.570312 438.101562 317.1875 442.136719 317.1875 442.136719 Z M 578.40625 588.105469 C 728.433594 510.382812 658.785156 435.417969 610.546875 444.769531 C 598.515625 447.453125 593.125 450.136719 593.125 450.136719 C 593.125 450.136719 597.136719 442.113281 606.511719 439.429688 C 701.632812 405.933594 776.648438 539.890625 575.675781 592.117188 C 575.675781 592.117188 577.003906 590.789062 578.355469 588.105469 Z M 331.953125 799.757812 C 476.617188 809.136719 697.671875 794.394531 703.011719 726.046875 C 703.011719 726.046875 692.308594 752.875 583.796875 772.933594 C 460.546875 795.699219 307.835938 792.988281 218.078125 778.296875 C 218.078125 778.296875 236.832031 794.34375 331.953125 799.734375 Z M 331.953125 799.757812 "/><path style=" stroke:none;fill-rule:nonzero;fill:#d40000;fill-opacity:1;" d="M 487.546875 0.0234375 C 487.546875 0.0234375 570.609375 84.417969 408.523438 211.679688 C 278.574219 314.824219 379.0625 373.765625 408.523438 440.757812 C 332.152344 372.4375 277.246094 312.140625 314.753906 255.90625 C 369.660156 172.820312 521.042969 132.878906 487.546875 0.0234375 Z M 444.925781 384.5 C 483.785156 428.699219 434.21875 468.890625 434.21875 468.890625 C 434.21875 468.890625 533.351562 417.992188 487.796875 355.015625 C 446.28125 294.742188 414.085938 265.257812 588.261719 164.796875 C 588.261719 164.796875 313.652344 233.117188 444.925781 384.5 Z M 444.925781 384.5 "/></g></svg>