<svg xmlns="http://www.w3.org/2000/svg" xmlns:xlink="http://www.w3.org/1999/xlink" width="1080" zoomAndPan="magnify" viewBox="0 0 810 809.999993" height="1080" preserveAspectRatio="xMidYMid meet" version="1.2"><defs><clipPath id="f78e05b662"><path d="M 0 229.835938 L 810 229.835938 L 810 810 L 0 810 Z M 0 229.835938 "/></clipPath></defs><g id="4150f4d635"><g clip-rule="nonzero" clip-path="url(#f78e05b662)"><path style=" stroke:none;fill-rule:nonzero;fill:#18175c;fill-opacity:1;" d="M 85.9375 783.679688 C 74.144531 783.679688 62.890625 780.285156 53.246094 773.992188 L 284.15625 537.398438 L 358.570312 613.089844 C 370.820312 625.550781 387.183594 632.414062 404.652344 632.421875 C 404.660156 632.421875 404.660156 632.421875 404.671875 632.421875 C 422.125 632.421875 438.484375 625.570312 450.726562 613.125 L 525.335938 537.378906 L 756.71875 774.015625 C 747.089844 780.292969 735.847656 783.679688 724.0625 783.679688 Z M 35.023438 755.449219 C 29.128906 746.023438 25.945312 735.109375 25.945312 723.707031 L 25.945312 315.914062 C 25.945312 304.441406 29.144531 293.46875 35.109375 284.027344 L 265.941406 518.851562 Z M 85.9375 255.941406 L 724.0625 255.941406 C 735.796875 255.941406 746.996094 259.28125 756.589844 265.507812 L 516.113281 509.707031 L 432.207031 594.882812 C 424.890625 602.328125 415.101562 606.433594 404.671875 606.433594 C 404.660156 606.433594 404.660156 606.433594 404.660156 606.433594 C 394.214844 606.433594 384.425781 602.320312 377.105469 594.875 L 293.394531 509.714844 L 53.375 265.535156 C 62.984375 259.289062 74.195312 255.941406 85.9375 255.941406 Z M 543.574219 518.851562 L 774.867188 283.984375 C 780.847656 293.453125 784.054688 304.433594 784.054688 315.914062 L 784.054688 723.707031 C 784.054688 735.117188 780.871094 746.039062 774.941406 755.480469 Z M 785.050781 255.355469 C 785.050781 255.355469 785.050781 255.347656 785.050781 255.347656 C 785.042969 255.347656 785.042969 255.339844 785.035156 255.339844 C 785.035156 255.332031 785.035156 255.332031 785.027344 255.324219 C 785.027344 255.324219 785.015625 255.3125 785.007812 255.304688 C 768.773438 238.960938 747.132812 229.949219 724.0625 229.949219 L 85.9375 229.949219 C 62.851562 229.949219 41.183594 238.976562 24.933594 255.363281 C 24.921875 255.375 24.914062 255.382812 24.90625 255.390625 C 8.824219 271.550781 -0.0429688 293.046875 -0.0429688 315.914062 L -0.0429688 723.707031 C -0.0429688 746.53125 8.796875 768.003906 24.839844 784.175781 C 24.882812 784.21875 24.921875 784.261719 24.964844 784.304688 C 24.972656 784.3125 24.984375 784.320312 24.992188 784.339844 C 25 784.347656 25.015625 784.355469 25.023438 784.363281 C 41.285156 800.675781 62.902344 809.667969 85.9375 809.667969 L 724.0625 809.667969 C 747.117188 809.667969 768.742188 800.675781 784.976562 784.363281 C 784.976562 784.355469 784.984375 784.355469 784.992188 784.347656 C 785 784.347656 785 784.339844 785.007812 784.328125 C 785.050781 784.289062 785.09375 784.253906 785.136719 784.210938 C 801.203125 768.019531 810.042969 746.53125 810.042969 723.707031 L 810.042969 315.914062 C 810.042969 293.039062 801.167969 271.53125 785.050781 255.355469 "/></g></g></svg>