<svg xmlns="http://www.w3.org/2000/svg" xmlns:xlink="http://www.w3.org/1999/xlink" width="1080" zoomAndPan="magnify" viewBox="0 0 810 809.999993" height="1080" preserveAspectRatio="xMidYMid meet" version="1.2"><defs><clipPath id="e01d6b9a73"><path d="M 1.320312 217.179688 L 808.722656 217.179688 L 808.722656 519 L 1.320312 519 Z M 1.320312 217.179688 "/></clipPath><clipPath id="7a47d761bd"><path d="M 643 416 L 696 416 L 696 719.460938 L 643 719.460938 Z M 643 416 "/></clipPath></defs><g id="80c94127f6"><g clip-rule="nonzero" clip-path="url(#e01d6b9a73)"><path style=" stroke:none;fill-rule:nonzero;fill:#ffffff;fill-opacity:1;" d="M 662.199219 313.277344 L 662.207031 313.238281 M 1.441406 368 L 1.3125 367.960938 L 1.558594 367.960938 L 184.207031 299.738281 L 184.308594 299.613281 L 184.457031 299.644531 L 310.59375 252.539062 L 310.648438 252.515625 L 310.699219 252.402344 L 310.871094 252.433594 L 405.0625 217.25 L 405.023438 217.179688 L 556.253906 273.660156 L 662.230469 313.246094 L 808.722656 367.960938 L 617.996094 439.1875 L 610.105469 442.132812 L 499.707031 483.375 L 405.023438 518.738281 L 297.089844 478.421875 L 297.082031 478.421875 L 199.929688 442.132812 L 174.65625 432.703125 L 1.496094 368.023438 L 1.375 368.023438 L 1.441406 368 "/></g><path style=" stroke:none;fill-rule:nonzero;fill:#ffffff;fill-opacity:1;" d="M 610.105469 459.300781 L 610.105469 539.984375 L 610.097656 539.984375 C 610.097656 540.046875 610.105469 540.109375 610.105469 540.171875 C 610.105469 573.742188 587.371094 604.140625 550.582031 626.214844 C 513.425781 648.519531 461.9375 662.339844 405.023438 662.339844 C 397.6875 662.339844 390.457031 662.105469 383.328125 661.660156 L 383.320312 661.652344 C 328.207031 658.203125 279.601562 641.75 246.300781 617.535156 C 217.328125 596.46875 199.929688 569.535156 199.929688 540.171875 C 199.929688 540.109375 199.9375 540.046875 199.9375 539.984375 L 199.929688 539.984375 L 199.929688 459.300781 L 405.023438 535.902344 L 610.105469 459.300781 "/><g clip-rule="nonzero" clip-path="url(#7a47d761bd)"><path style=" stroke:none;fill-rule:nonzero;fill:#ffffff;fill-opacity:1;" d="M 649.757812 641.46875 L 649.867188 640.371094 L 656.523438 571.210938 L 656.816406 568.179688 L 660.019531 534.875 L 657.324219 534.875 L 657.324219 497.851562 C 653.617188 494.523438 651.277344 489.703125 651.277344 484.320312 C 651.277344 481.5625 651.894531 478.957031 652.992188 476.621094 C 654.777344 472.820312 657.832031 469.734375 661.617188 467.910156 L 661.617188 422.902344 L 677.695312 416.898438 L 677.695312 468.066406 C 683.632812 471.066406 687.714844 477.207031 687.714844 484.320312 C 687.714844 489.703125 685.371094 494.523438 681.664062 497.851562 L 681.664062 534.875 L 678.71875 534.875 L 680.671875 554.816406 L 683.089844 579.609375 L 689.070312 640.71875 L 689.085938 640.929688 L 692.328125 674.058594 L 695.21875 703.695312 C 695.289062 704.332031 695.304688 705.058594 695.21875 705.710938 C 694.246094 713.84375 681.941406 719.976562 667.734375 719.421875 C 653.53125 718.871094 642.800781 711.828125 643.769531 703.695312 L 649.757812 641.46875 "/></g></g></svg>