<svg xmlns="http://www.w3.org/2000/svg" xmlns:xlink="http://www.w3.org/1999/xlink" width="1080" zoomAndPan="magnify" viewBox="0 0 810 809.999993" height="1080" preserveAspectRatio="xMidYMid meet" version="1.2"><defs><clipPath id="7bdeb94a6b"><path d="M 271 35.5625 L 561 35.5625 L 561 189 L 271 189 Z M 271 35.5625 "/></clipPath><clipPath id="8507e97af3"><path d="M 81 710.464844 L 715 710.464844 L 715 797.339844 L 81 797.339844 Z M 81 710.464844 "/></clipPath></defs><g id="205d81805c"><g clip-rule="nonzero" clip-path="url(#7bdeb94a6b)"><path style=" stroke:none;fill-rule:evenodd;fill:#18175c;fill-opacity:1;" d="M 329.191406 159.5 L 329.191406 101.75 C 329.191406 99.207031 330.191406 96.742188 332 94.933594 C 333.808594 93.125 336.273438 92.125 338.816406 92.125 L 492.820312 92.125 C 495.363281 92.125 497.828125 93.125 499.636719 94.933594 C 501.445312 96.742188 502.445312 99.207031 502.445312 101.75 L 502.445312 159.5 C 502.445312 175.441406 515.382812 188.378906 531.324219 188.378906 C 547.261719 188.378906 560.199219 175.441406 560.199219 159.5 C 560.199219 159.5 560.199219 128.546875 560.199219 101.75 C 560.199219 83.882812 553.117188 66.75 540.449219 54.121094 C 527.820312 41.457031 510.6875 34.371094 492.820312 34.371094 C 450.085938 34.371094 381.550781 34.371094 338.816406 34.371094 C 320.949219 34.371094 303.816406 41.457031 291.1875 54.121094 C 278.519531 66.75 271.4375 83.882812 271.4375 101.75 C 271.4375 128.546875 271.4375 159.5 271.4375 159.5 C 271.4375 175.441406 284.375 188.378906 300.3125 188.378906 C 316.253906 188.378906 329.191406 175.441406 329.191406 159.5 Z M 329.191406 159.5 "/></g><path style=" stroke:none;fill-rule:evenodd;fill:#18175c;fill-opacity:1;" d="M 656.453125 698.527344 L 656.453125 756.277344 C 656.453125 772.21875 669.390625 785.15625 685.332031 785.15625 C 701.269531 785.15625 714.207031 772.21875 714.207031 756.277344 L 714.207031 698.527344 C 714.207031 682.585938 701.269531 669.648438 685.332031 669.648438 C 669.390625 669.648438 656.453125 682.585938 656.453125 698.527344 Z M 656.453125 698.527344 "/><path style=" stroke:none;fill-rule:evenodd;fill:#18175c;fill-opacity:1;" d="M 637.203125 130.625 L 637.203125 727.402344 L 723.832031 727.402344 C 751.898438 727.402344 778.851562 716.238281 798.71875 696.40625 C 818.546875 676.542969 829.710938 649.589844 829.710938 621.523438 L 829.710938 236.503906 C 829.710938 208.4375 818.546875 181.484375 798.71875 161.621094 C 778.851562 141.792969 751.898438 130.625 723.832031 130.625 Z M 579.449219 130.625 L 579.449219 727.402344 L 252.1875 727.402344 L 252.1875 130.625 Z M 194.433594 130.625 L 107.804688 130.625 C 79.738281 130.625 52.785156 141.792969 32.917969 161.621094 C 13.089844 181.484375 1.925781 208.4375 1.925781 236.503906 L 1.925781 621.523438 C 1.925781 649.589844 13.089844 676.542969 32.917969 696.40625 C 52.785156 716.238281 79.738281 727.402344 107.804688 727.402344 L 194.433594 727.402344 Z M 194.433594 130.625 "/><path style=" stroke:none;fill-rule:evenodd;fill:#18175c;fill-opacity:1;" d="M 117.429688 698.527344 L 117.429688 756.277344 C 117.429688 772.21875 130.367188 785.15625 146.304688 785.15625 C 162.246094 785.15625 175.183594 772.21875 175.183594 756.277344 L 175.183594 698.527344 C 175.183594 682.585938 162.246094 669.648438 146.304688 669.648438 C 130.367188 669.648438 117.429688 682.585938 117.429688 698.527344 Z M 117.429688 698.527344 "/><g clip-rule="nonzero" clip-path="url(#8507e97af3)"><path style=" stroke:none;fill-rule:nonzero;fill:#ffffff;fill-opacity:1;" d="M 81 710.464844 L 714.894531 710.464844 L 714.894531 797.339844 L 81 797.339844 Z M 81 710.464844 "/></g></g></svg>