<svg xmlns="http://www.w3.org/2000/svg" xmlns:xlink="http://www.w3.org/1999/xlink" width="1080" zoomAndPan="magnify" viewBox="0 0 810 809.999993" height="1080" preserveAspectRatio="xMidYMid meet" version="1.2"><defs><clipPath id="d374383dec"><path d="M 2 211 L 807 211 L 807 728.8125 L 2 728.8125 Z M 2 211 "/></clipPath></defs><g id="35c0b2e897"><g clip-rule="nonzero" clip-path="url(#d374383dec)"><path style=" stroke:none;fill-rule:nonzero;fill:#ffffff;fill-opacity:1;" d="M 175.148438 642.621094 C 167.800781 642.621094 160.464844 639.820312 154.851562 634.207031 L 11.285156 490.640625 C 0.0703125 479.429688 0.0703125 461.253906 11.285156 450.039062 L 154.851562 306.476562 C 166.0625 295.261719 184.238281 295.261719 195.449219 306.476562 C 206.664062 317.6875 206.664062 335.863281 195.449219 347.074219 L 72.183594 470.339844 L 195.449219 593.605469 C 206.664062 604.820312 206.664062 622.992188 195.449219 634.207031 C 189.835938 639.820312 182.5 642.621094 175.148438 642.621094 Z M 318.714844 728.757812 C 315.371094 728.757812 311.953125 728.171875 308.636719 726.921875 C 293.792969 721.351562 286.253906 704.796875 291.824219 689.953125 L 464.105469 230.542969 C 469.6875 215.683594 486.226562 208.175781 501.070312 213.746094 C 515.917969 219.316406 523.453125 235.871094 517.882812 250.714844 L 345.605469 710.125 C 341.269531 721.652344 330.34375 728.757812 318.714844 728.757812 Z M 634.558594 642.621094 C 627.207031 642.621094 619.871094 639.820312 614.257812 634.207031 C 603.046875 622.992188 603.046875 604.820312 614.257812 593.605469 L 737.523438 470.339844 L 614.257812 347.074219 C 603.046875 335.863281 603.046875 317.6875 614.257812 306.476562 C 625.472656 295.261719 643.648438 295.261719 654.859375 306.476562 L 798.425781 450.039062 C 809.636719 461.253906 809.636719 479.429688 798.425781 490.640625 L 654.859375 634.207031 C 649.246094 639.820312 641.910156 642.621094 634.558594 642.621094 Z M 634.558594 642.621094 "/></g></g></svg>