<svg xmlns="http://www.w3.org/2000/svg" xmlns:xlink="http://www.w3.org/1999/xlink" width="1080" zoomAndPan="magnify" viewBox="0 0 810 809.999993" height="1080" preserveAspectRatio="xMidYMid meet" version="1.2"><g id="59f20de556"><path style=" stroke:none;fill-rule:nonzero;fill:#18175c;fill-opacity:1;" d="M 578.53125 571.003906 C 592.445312 603.175781 588.644531 636.714844 588.859375 669.839844 C 589.070312 702.867188 589.0625 735.898438 588.835938 768.929688 C 588.648438 793.492188 568.871094 809.867188 546.066406 804.863281 C 530.164062 801.375 518.992188 787.527344 518.953125 770.425781 C 518.855469 723.75 518.683594 677.066406 519.164062 630.390625 C 519.402344 607.128906 512.550781 586.945312 496.835938 569.851562 C 486.71875 558.84375 483.035156 546.292969 488.453125 532.15625 C 493.707031 518.445312 504.433594 512.082031 518.863281 509.402344 C 545.324219 504.480469 572.1875 500.238281 597.710938 492.050781 C 656.664062 473.140625 691.1875 431.039062 703.785156 371.027344 C 711.507812 334.238281 715.101562 297.078125 705.667969 259.910156 C 699.585938 235.945312 688.230469 214.570312 671.351562 196.539062 C 659.011719 183.355469 656.058594 169.382812 662.167969 152.28125 C 671.269531 126.796875 672.203125 100.628906 665.5 72.65625 C 656.3125 75.78125 647.195312 77.765625 639.140625 81.847656 C 618.753906 92.179688 598.367188 102.675781 578.910156 114.621094 C 565.863281 122.632812 553.421875 125.023438 538.589844 121.1875 C 467.167969 102.703125 395.691406 102.734375 324.160156 121.277344 C 309.664062 125.035156 297.152344 123.1875 284.65625 114.722656 C 260.21875 98.167969 234.515625 83.855469 205.976562 75.378906 C 203.429688 74.621094 200.804688 74.125 197.601562 73.359375 C 192.296875 92.886719 191.867188 112.023438 195.476562 131.207031 C 197.082031 139.738281 199.65625 148.121094 202.285156 156.414062 C 206.527344 169.769531 204.75 182.015625 195.242188 192.289062 C 164.105469 225.925781 150.28125 265.625 152.09375 311.210938 C 153.347656 342.738281 157.171875 373.742188 168.929688 403.292969 C 187.980469 451.183594 224.292969 480.242188 272.351562 494.859375 C 294.925781 501.71875 318.417969 505.878906 341.730469 509.875 C 365.402344 513.933594 379.40625 528.480469 376.277344 549.925781 C 375.28125 556.769531 371.738281 564.195312 367.144531 569.398438 C 350.542969 588.21875 343.457031 609.636719 343.835938 634.648438 C 344.523438 679.679688 344.171875 724.726562 344 769.769531 C 343.921875 790.441406 329.117188 805.6875 309.578125 805.949219 C 289.914062 806.210938 274.71875 790.605469 274.515625 769.566406 C 274.332031 749.957031 274.476562 730.34375 274.476562 711.761719 C 256.625 711.761719 239.488281 712.6875 222.484375 711.578125 C 181.921875 708.941406 148.148438 691.253906 120.605469 661.886719 C 108.121094 648.578125 96.921875 634.050781 85.28125 619.960938 C 75.660156 608.324219 65.667969 598.007812 50.464844 592.746094 C 33.605469 586.914062 25.894531 566.871094 31.707031 549.941406 C 37.675781 532.558594 55.722656 522.988281 73.625 527.585938 C 96.75 533.519531 114.796875 547.238281 130.070312 564.878906 C 141.136719 577.664062 151.761719 590.851562 162.214844 604.152344 C 191.484375 641.378906 229.675781 649.113281 273.480469 638.632812 C 274.296875 626.984375 274.40625 615.507812 276.097656 604.269531 C 277.746094 593.292969 281.007812 582.554688 283.621094 571.453125 C 271.15625 567.652344 258.0625 564.132812 245.292969 559.6875 C 151.90625 527.183594 101.203125 459.839844 86.769531 363.632812 C 81.082031 325.714844 79.144531 287.628906 87.90625 249.714844 C 94.875 219.539062 107.34375 191.914062 125.765625 167.050781 C 128.9375 162.773438 130.066406 158.980469 128.855469 153.636719 C 119.019531 110.339844 122.589844 68.035156 139.117188 26.84375 C 145.980469 9.738281 157.324219 2.863281 175.605469 2.011719 C 218.753906 -0.0078125 256.433594 16.558594 291.890625 37.8125 C 308.886719 48 323.910156 49.839844 342.867188 46.074219 C 407.621094 33.210938 472.550781 35.082031 537.050781 48.96875 C 544.488281 50.570312 550.210938 49.835938 556.792969 45.804688 C 588.789062 26.214844 622.113281 9.320312 659.652344 3.371094 C 671.117188 1.554688 683.125 1.550781 694.714844 2.597656 C 708.539062 3.851562 718.09375 12.226562 723.359375 25.214844 C 740.363281 67.132812 744.195312 110.132812 734.460938 154.398438 C 733.710938 157.820312 734.558594 162.675781 736.589844 165.460938 C 770.726562 212.242188 784.023438 264.722656 780.527344 322.046875 C 778.207031 360.109375 772.34375 397.414062 757.429688 432.796875 C 729.222656 499.722656 678.074219 540.632812 610.011719 562.128906 C 599.933594 565.308594 589.664062 567.882812 578.53125 571.003906 Z M 578.53125 571.003906 "/></g></svg>