<svg xmlns="http://www.w3.org/2000/svg" xmlns:xlink="http://www.w3.org/1999/xlink" width="1080" zoomAndPan="magnify" viewBox="0 0 810 809.999993" height="1080" preserveAspectRatio="xMidYMid meet" version="1.2"><defs><clipPath id="8408a4a1f8"><path d="M 265 75.128906 L 548 75.128906 L 548 225 L 265 225 Z M 265 75.128906 "/></clipPath><clipPath id="1e37d89166"><path d="M 642 695 L 699 695 L 699 751.628906 L 642 751.628906 Z M 642 695 "/></clipPath><clipPath id="8c3db07c65"><path d="M 1 168 L 810 168 L 810 751.628906 L 1 751.628906 Z M 1 168 "/></clipPath><clipPath id="ec0be4a767"><path d="M 114 695 L 172 695 L 172 751.628906 L 114 751.628906 Z M 114 695 "/></clipPath></defs><g id="bcdc75d4d1"><g clip-rule="nonzero" clip-path="url(#8408a4a1f8)"><path style=" stroke:none;fill-rule:evenodd;fill:#18175c;fill-opacity:1;" d="M 321.972656 196.347656 L 321.972656 139.859375 C 321.972656 137.375 322.953125 134.964844 324.722656 133.195312 C 326.492188 131.425781 328.902344 130.445312 331.386719 130.445312 L 482.015625 130.445312 C 484.503906 130.445312 486.914062 131.425781 488.683594 133.195312 C 490.453125 134.964844 491.433594 137.375 491.433594 139.859375 L 491.433594 196.347656 C 491.433594 211.9375 504.085938 224.589844 519.675781 224.589844 C 535.265625 224.589844 547.917969 211.9375 547.917969 196.347656 C 547.917969 196.347656 547.917969 166.070312 547.917969 139.859375 C 547.917969 122.386719 540.988281 105.628906 528.601562 93.277344 C 516.25 80.890625 499.492188 73.960938 482.015625 73.960938 C 440.21875 73.960938 373.1875 73.960938 331.386719 73.960938 C 313.914062 73.960938 297.15625 80.890625 284.804688 93.277344 C 272.414062 105.628906 265.484375 122.386719 265.484375 139.859375 C 265.484375 166.070312 265.484375 196.347656 265.484375 196.347656 C 265.484375 211.9375 278.140625 224.589844 293.730469 224.589844 C 309.320312 224.589844 321.972656 211.9375 321.972656 196.347656 Z M 321.972656 196.347656 "/></g><g clip-rule="nonzero" clip-path="url(#1e37d89166)"><path style=" stroke:none;fill-rule:evenodd;fill:#18175c;fill-opacity:1;" d="M 642.0625 723.554688 L 642.0625 780.039062 C 642.0625 795.632812 654.714844 808.285156 670.304688 808.285156 C 685.894531 808.285156 698.550781 795.632812 698.550781 780.039062 L 698.550781 723.554688 C 698.550781 707.964844 685.894531 695.3125 670.304688 695.3125 C 654.714844 695.3125 642.0625 707.964844 642.0625 723.554688 Z M 642.0625 723.554688 "/></g><g clip-rule="nonzero" clip-path="url(#8c3db07c65)"><path style=" stroke:none;fill-rule:evenodd;fill:#18175c;fill-opacity:1;" d="M 623.234375 168.105469 L 623.234375 751.796875 L 707.964844 751.796875 C 735.414062 751.796875 761.777344 740.875 781.207031 721.484375 C 800.601562 702.050781 811.523438 675.691406 811.523438 648.238281 L 811.523438 271.664062 C 811.523438 244.210938 800.601562 217.851562 781.207031 198.417969 C 761.777344 179.023438 735.414062 168.105469 707.964844 168.105469 Z M 566.746094 168.105469 L 566.746094 751.796875 L 246.65625 751.796875 L 246.65625 168.105469 Z M 190.171875 168.105469 L 105.441406 168.105469 C 77.988281 168.105469 51.628906 179.023438 32.195312 198.417969 C 12.804688 217.851562 1.882812 244.210938 1.882812 271.664062 L 1.882812 648.238281 C 1.882812 675.691406 12.804688 702.050781 32.195312 721.484375 C 51.628906 740.875 77.988281 751.796875 105.441406 751.796875 L 190.171875 751.796875 Z M 190.171875 168.105469 "/></g><g clip-rule="nonzero" clip-path="url(#ec0be4a767)"><path style=" stroke:none;fill-rule:evenodd;fill:#18175c;fill-opacity:1;" d="M 114.855469 723.554688 L 114.855469 780.039062 C 114.855469 795.632812 127.507812 808.285156 143.097656 808.285156 C 158.6875 808.285156 171.34375 795.632812 171.34375 780.039062 L 171.34375 723.554688 C 171.34375 707.964844 158.6875 695.3125 143.097656 695.3125 C 127.507812 695.3125 114.855469 707.964844 114.855469 723.554688 Z M 114.855469 723.554688 "/></g></g></svg>