<svg xmlns="http://www.w3.org/2000/svg" xmlns:xlink="http://www.w3.org/1999/xlink" width="1080" zoomAndPan="magnify" viewBox="0 0 810 809.999993" height="1080" preserveAspectRatio="xMidYMid meet" version="1.2"><defs><clipPath id="91203e4dbd"><path d="M 162.101562 458 L 810 458 L 810 810 L 162.101562 810 Z M 162.101562 458 "/></clipPath></defs><g id="883936ec3b"><path style=" stroke:none;fill-rule:nonzero;fill:#18175c;fill-opacity:1;" d="M 648.023438 243.03125 C 648.023438 245.683594 647.957031 248.332031 647.828125 250.980469 C 647.695312 253.628906 647.503906 256.269531 647.242188 258.910156 C 646.980469 261.546875 646.65625 264.175781 646.269531 266.800781 C 645.878906 269.421875 645.425781 272.03125 644.910156 274.632812 C 644.394531 277.230469 643.8125 279.816406 643.167969 282.390625 C 642.523438 284.960938 641.816406 287.515625 641.046875 290.050781 C 640.277344 292.589844 639.445312 295.105469 638.554688 297.601562 C 637.660156 300.097656 636.707031 302.570312 635.691406 305.015625 C 634.679688 307.464844 633.605469 309.890625 632.46875 312.285156 C 631.335938 314.683594 630.144531 317.050781 628.894531 319.386719 C 627.648438 321.722656 626.339844 324.03125 624.976562 326.304688 C 623.613281 328.578125 622.195312 330.816406 620.722656 333.019531 C 619.25 335.226562 617.726562 337.390625 616.148438 339.519531 C 614.566406 341.648438 612.9375 343.738281 611.253906 345.789062 C 609.574219 347.835938 607.84375 349.84375 606.0625 351.808594 C 604.28125 353.773438 602.457031 355.691406 600.582031 357.566406 C 598.707031 359.441406 596.789062 361.265625 594.824219 363.046875 C 592.859375 364.828125 590.851562 366.558594 588.804688 368.242188 C 586.753906 369.921875 584.664062 371.550781 582.535156 373.132812 C 580.40625 374.710938 578.238281 376.234375 576.035156 377.710938 C 573.832031 379.183594 571.59375 380.597656 569.320312 381.960938 C 567.046875 383.324219 564.738281 384.632812 562.402344 385.882812 C 560.0625 387.128906 557.699219 388.320312 555.300781 389.457031 C 552.90625 390.589844 550.480469 391.664062 548.03125 392.675781 C 545.582031 393.691406 543.113281 394.644531 540.617188 395.539062 C 538.121094 396.429688 535.605469 397.261719 533.066406 398.03125 C 530.53125 398.800781 527.976562 399.507812 525.40625 400.152344 C 522.832031 400.796875 520.246094 401.378906 517.648438 401.894531 C 515.046875 402.410156 512.4375 402.863281 509.816406 403.253906 C 507.191406 403.640625 504.5625 403.964844 501.925781 404.226562 C 499.285156 404.488281 496.644531 404.679688 493.996094 404.8125 C 491.347656 404.941406 488.699219 405.007812 486.046875 405.007812 C 483.398438 405.007812 480.75 404.941406 478.101562 404.8125 C 475.453125 404.679688 472.808594 404.488281 470.171875 404.226562 C 467.535156 403.964844 464.902344 403.640625 462.28125 403.253906 C 459.660156 402.863281 457.046875 402.410156 454.449219 401.894531 C 451.847656 401.378906 449.261719 400.796875 446.691406 400.152344 C 444.121094 399.507812 441.566406 398.800781 439.03125 398.03125 C 436.492188 397.261719 433.976562 396.429688 431.480469 395.539062 C 428.984375 394.644531 426.511719 393.691406 424.0625 392.675781 C 421.613281 391.664062 419.191406 390.589844 416.796875 389.457031 C 414.398438 388.320312 412.03125 387.128906 409.695312 385.882812 C 407.355469 384.632812 405.050781 383.324219 402.777344 381.960938 C 400.503906 380.597656 398.265625 379.183594 396.0625 377.710938 C 393.855469 376.234375 391.691406 374.710938 389.5625 373.132812 C 387.433594 371.550781 385.34375 369.921875 383.292969 368.242188 C 381.246094 366.558594 379.238281 364.828125 377.273438 363.046875 C 375.308594 361.265625 373.390625 359.441406 371.515625 357.566406 C 369.640625 355.691406 367.8125 353.773438 366.035156 351.808594 C 364.253906 349.84375 362.523438 347.835938 360.839844 345.789062 C 359.160156 343.738281 357.527344 341.648438 355.949219 339.519531 C 354.371094 337.390625 352.84375 335.226562 351.371094 333.019531 C 349.898438 330.816406 348.480469 328.578125 347.117188 326.304688 C 345.757812 324.03125 344.449219 321.722656 343.199219 319.386719 C 341.949219 317.050781 340.757812 314.683594 339.625 312.285156 C 338.492188 309.890625 337.417969 307.464844 336.402344 305.015625 C 335.390625 302.570312 334.4375 300.097656 333.542969 297.601562 C 332.648438 295.105469 331.820312 292.589844 331.050781 290.050781 C 330.28125 287.515625 329.574219 284.960938 328.929688 282.390625 C 328.285156 279.816406 327.703125 277.230469 327.1875 274.632812 C 326.667969 272.03125 326.21875 269.421875 325.828125 266.800781 C 325.4375 264.175781 325.113281 261.546875 324.855469 258.910156 C 324.59375 256.269531 324.398438 253.628906 324.269531 250.980469 C 324.140625 248.332031 324.074219 245.683594 324.074219 243.03125 C 324.074219 240.382812 324.140625 237.734375 324.269531 235.085938 C 324.398438 232.4375 324.59375 229.792969 324.855469 227.15625 C 325.113281 224.519531 325.4375 221.886719 325.828125 219.265625 C 326.21875 216.644531 326.667969 214.035156 327.1875 211.433594 C 327.703125 208.832031 328.285156 206.246094 328.929688 203.675781 C 329.574219 201.105469 330.28125 198.550781 331.050781 196.015625 C 331.820312 193.476562 332.648438 190.960938 333.542969 188.464844 C 334.4375 185.96875 335.390625 183.496094 336.402344 181.046875 C 337.417969 178.597656 338.492188 176.175781 339.625 173.78125 C 340.757812 171.382812 341.949219 169.015625 343.199219 166.679688 C 344.449219 164.339844 345.757812 162.035156 347.117188 159.761719 C 348.480469 157.488281 349.898438 155.25 351.371094 153.046875 C 352.84375 150.839844 354.371094 148.675781 355.949219 146.546875 C 357.527344 144.417969 359.160156 142.328125 360.839844 140.277344 C 362.523438 138.230469 364.253906 136.222656 366.035156 134.257812 C 367.8125 132.292969 369.640625 130.375 371.515625 128.5 C 373.390625 126.625 375.308594 124.796875 377.273438 123.019531 C 379.238281 121.238281 381.246094 119.507812 383.292969 117.824219 C 385.34375 116.144531 387.433594 114.511719 389.5625 112.933594 C 391.691406 111.355469 393.855469 109.828125 396.0625 108.355469 C 398.265625 106.882812 400.503906 105.464844 402.777344 104.101562 C 405.050781 102.742188 407.355469 101.433594 409.695312 100.183594 C 412.03125 98.933594 414.398438 97.742188 416.796875 96.609375 C 419.191406 95.476562 421.613281 94.402344 424.0625 93.390625 C 426.511719 92.375 428.984375 91.421875 431.480469 90.527344 C 433.976562 89.632812 436.492188 88.804688 439.03125 88.035156 C 441.566406 87.265625 444.121094 86.558594 446.691406 85.914062 C 449.261719 85.269531 451.847656 84.6875 454.449219 84.171875 C 457.046875 83.65625 459.660156 83.203125 462.28125 82.8125 C 464.902344 82.421875 467.535156 82.097656 470.171875 81.839844 C 472.808594 81.578125 475.453125 81.382812 478.101562 81.253906 C 480.75 81.125 483.398438 81.058594 486.046875 81.058594 C 488.699219 81.058594 491.347656 81.125 493.996094 81.253906 C 496.644531 81.382812 499.285156 81.578125 501.925781 81.839844 C 504.5625 82.097656 507.191406 82.421875 509.816406 82.8125 C 512.4375 83.203125 515.046875 83.65625 517.648438 84.171875 C 520.246094 84.6875 522.832031 85.269531 525.40625 85.914062 C 527.976562 86.558594 530.53125 87.265625 533.066406 88.035156 C 535.605469 88.804688 538.121094 89.632812 540.617188 90.527344 C 543.113281 91.421875 545.582031 92.375 548.03125 93.390625 C 550.480469 94.402344 552.90625 95.476562 555.300781 96.609375 C 557.699219 97.742188 560.0625 98.933594 562.402344 100.183594 C 564.738281 101.433594 567.046875 102.742188 569.320312 104.101562 C 571.59375 105.464844 573.832031 106.882812 576.035156 108.355469 C 578.238281 109.828125 580.40625 111.355469 582.535156 112.933594 C 584.664062 114.511719 586.753906 116.144531 588.804688 117.824219 C 590.851562 119.507812 592.859375 121.238281 594.824219 123.019531 C 596.789062 124.796875 598.707031 126.625 600.582031 128.5 C 602.457031 130.375 604.28125 132.292969 606.0625 134.257812 C 607.84375 136.222656 609.574219 138.230469 611.253906 140.277344 C 612.9375 142.328125 614.566406 144.417969 616.148438 146.546875 C 617.726562 148.675781 619.25 150.839844 620.722656 153.046875 C 622.195312 155.25 623.613281 157.488281 624.976562 159.761719 C 626.339844 162.035156 627.648438 164.339844 628.894531 166.679688 C 630.144531 169.015625 631.335938 171.382812 632.46875 173.78125 C 633.605469 176.175781 634.679688 178.597656 635.691406 181.046875 C 636.707031 183.496094 637.660156 185.96875 638.554688 188.464844 C 639.445312 190.960938 640.277344 193.476562 641.046875 196.015625 C 641.816406 198.550781 642.523438 201.105469 643.167969 203.675781 C 643.8125 206.246094 644.394531 208.832031 644.910156 211.433594 C 645.425781 214.035156 645.878906 216.644531 646.269531 219.265625 C 646.65625 221.886719 646.980469 224.519531 647.242188 227.15625 C 647.503906 229.792969 647.695312 232.4375 647.828125 235.085938 C 647.957031 237.734375 648.023438 240.382812 648.023438 243.03125 Z M 648.023438 243.03125 "/><g clip-rule="nonzero" clip-path="url(#91203e4dbd)"><path style=" stroke:none;fill-rule:nonzero;fill:#18175c;fill-opacity:1;" d="M 432.058594 458.996094 L 540.039062 458.996094 C 544.457031 458.996094 548.871094 459.105469 553.285156 459.324219 C 557.699219 459.539062 562.101562 459.863281 566.5 460.296875 C 570.898438 460.730469 575.28125 461.269531 579.648438 461.917969 C 584.019531 462.566406 588.371094 463.324219 592.707031 464.183594 C 597.039062 465.046875 601.347656 466.015625 605.632812 467.089844 C 609.917969 468.160156 614.175781 469.339844 618.402344 470.621094 C 622.632812 471.90625 626.824219 473.289062 630.984375 474.777344 C 635.144531 476.265625 639.265625 477.855469 643.347656 479.546875 C 647.429688 481.238281 651.46875 483.027344 655.460938 484.917969 C 659.453125 486.804688 663.398438 488.792969 667.296875 490.875 C 671.191406 492.957031 675.035156 495.132812 678.824219 497.40625 C 682.613281 499.675781 686.347656 502.039062 690.019531 504.492188 C 693.691406 506.949219 697.304688 509.492188 700.851562 512.125 C 704.402344 514.753906 707.882812 517.472656 711.296875 520.273438 C 714.714844 523.078125 718.058594 525.960938 721.332031 528.929688 C 724.605469 531.894531 727.804688 534.941406 730.925781 538.066406 C 734.050781 541.191406 737.097656 544.390625 740.0625 547.664062 C 743.03125 550.9375 745.914062 554.28125 748.71875 557.695312 C 751.523438 561.109375 754.238281 564.59375 756.871094 568.140625 C 759.503906 571.691406 762.046875 575.300781 764.5 578.972656 C 766.953125 582.648438 769.316406 586.378906 771.589844 590.167969 C 773.859375 593.957031 776.035156 597.800781 778.121094 601.699219 C 780.203125 605.59375 782.1875 609.539062 784.078125 613.53125 C 785.964844 617.527344 787.753906 621.5625 789.445312 625.644531 C 791.136719 629.726562 792.726562 633.847656 794.214844 638.007812 C 795.703125 642.167969 797.089844 646.363281 798.371094 650.589844 C 799.652344 654.816406 800.832031 659.074219 801.90625 663.359375 C 802.980469 667.644531 803.945312 671.953125 804.808594 676.289062 C 805.671875 680.621094 806.425781 684.972656 807.074219 689.34375 C 807.722656 693.714844 808.261719 698.097656 808.695312 702.492188 C 809.128906 706.890625 809.453125 711.296875 809.671875 715.707031 C 809.886719 720.121094 809.996094 724.535156 809.996094 728.953125 L 809.996094 809.941406 L 162.101562 809.941406 L 162.101562 728.953125 C 162.101562 724.535156 162.210938 720.121094 162.425781 715.707031 C 162.644531 711.296875 162.96875 706.890625 163.402344 702.492188 C 163.835938 698.097656 164.375 693.714844 165.023438 689.34375 C 165.671875 684.972656 166.425781 680.621094 167.289062 676.289062 C 168.148438 671.953125 169.117188 667.644531 170.191406 663.359375 C 171.265625 659.074219 172.441406 654.816406 173.726562 650.589844 C 175.007812 646.363281 176.394531 642.167969 177.882812 638.007812 C 179.371094 633.847656 180.960938 629.726562 182.652344 625.644531 C 184.339844 621.566406 186.132812 617.527344 188.019531 613.53125 C 189.910156 609.539062 191.894531 605.59375 193.976562 601.699219 C 196.058594 597.800781 198.238281 593.957031 200.507812 590.167969 C 202.78125 586.378906 205.140625 582.648438 207.597656 578.972656 C 210.050781 575.300781 212.59375 571.691406 215.226562 568.140625 C 217.859375 564.59375 220.574219 561.109375 223.378906 557.695312 C 226.179688 554.28125 229.066406 550.9375 232.03125 547.664062 C 235 544.390625 238.046875 541.191406 241.167969 538.066406 C 244.292969 534.941406 247.492188 531.894531 250.765625 528.929688 C 254.039062 525.960938 257.382812 523.078125 260.800781 520.273438 C 264.214844 517.472656 267.695312 514.753906 271.246094 512.125 C 274.792969 509.492188 278.402344 506.949219 282.078125 504.492188 C 285.75 502.039062 289.484375 499.675781 293.273438 497.40625 C 297.0625 495.132812 300.90625 492.957031 304.800781 490.875 C 308.695312 488.792969 312.640625 486.804688 316.636719 484.917969 C 320.628906 483.027344 324.667969 481.238281 328.75 479.546875 C 332.832031 477.855469 336.953125 476.265625 341.113281 474.777344 C 345.273438 473.289062 349.464844 471.90625 353.691406 470.621094 C 357.921875 469.339844 362.175781 468.160156 366.464844 467.089844 C 370.75 466.015625 375.058594 465.046875 379.390625 464.183594 C 383.722656 463.324219 388.078125 462.566406 392.445312 461.917969 C 396.816406 461.269531 401.199219 460.730469 405.597656 460.296875 C 409.992188 459.863281 414.398438 459.539062 418.8125 459.324219 C 423.222656 459.105469 427.640625 458.996094 432.058594 458.996094 Z M 432.058594 458.996094 "/></g></g></svg>