<svg xmlns="http://www.w3.org/2000/svg" xmlns:xlink="http://www.w3.org/1999/xlink" width="1080" zoomAndPan="magnify" viewBox="0 0 810 809.999993" height="1080" preserveAspectRatio="xMidYMid meet" version="1.2"><g id="ada779ff50"><path style=" stroke:none;fill-rule:evenodd;fill:#18175c;fill-opacity:1;" d="M 810 810 L 648 810 L 648 526.535156 C 648 448.773438 613.703125 405.390625 552.175781 405.390625 C 485.238281 405.390625 445.5 450.605469 445.5 526.535156 L 445.5 810 L 283.5 810 L 283.5 283.5 L 445.5 283.5 L 445.5 342.710938 C 445.5 342.710938 496.335938 253.53125 610.851562 253.53125 C 725.4375 253.53125 810 323.433594 810 468.117188 Z M 98.902344 199.292969 C 44.273438 199.292969 0 154.664062 0 99.632812 C 0 44.632812 44.273438 0 98.902344 0 C 153.496094 0 197.753906 44.632812 197.753906 99.632812 C 197.800781 154.664062 153.496094 199.292969 98.902344 199.292969 Z M 0 810 L 202.5 810 L 202.5 283.5 L 0 283.5 Z M 0 810 "/></g></svg>