<svg xmlns="http://www.w3.org/2000/svg" xmlns:xlink="http://www.w3.org/1999/xlink" width="1080" zoomAndPan="magnify" viewBox="0 0 810 809.999993" height="1080" preserveAspectRatio="xMidYMid meet" version="1.2"><defs><clipPath id="5d08833bea"><path d="M 267.921875 81 L 809.867188 81 L 809.867188 810 L 267.921875 810 Z M 267.921875 81 "/></clipPath></defs><g id="e2e53b61cd"><g clip-rule="nonzero" clip-path="url(#5d08833bea)"><path style=" stroke:none;fill-rule:nonzero;fill:#ffffff;fill-opacity:1;" d="M 656.46875 543.304688 L 625.09375 582.953125 C 622.035156 586.816406 617.257812 589.125 612.308594 589.125 C 611.011719 589.125 609.710938 588.96875 608.449219 588.660156 L 559.351562 576.589844 C 556.023438 575.773438 552.605469 575.359375 549.191406 575.359375 C 544.5 575.359375 539.855469 576.132812 535.398438 577.660156 L 487.570312 594.054688 C 485.875 594.636719 484.109375 594.925781 482.316406 594.925781 C 477.851562 594.925781 473.539062 593.078125 470.484375 589.851562 L 435.703125 553.152344 C 430.082031 547.226562 422.914062 543.058594 414.976562 541.105469 L 365.875 529.039062 C 359.707031 527.523438 354.957031 522.511719 353.773438 516.269531 L 344.355469 466.59375 C 342.832031 458.5625 339.054688 451.183594 333.429688 445.25 L 298.648438 408.550781 C 294.28125 403.941406 292.996094 397.15625 295.375 391.265625 L 314.304688 344.382812 C 317.367188 336.804688 318.175781 328.554688 316.65625 320.523438 L 307.234375 270.847656 C 306.050781 264.609375 308.636719 258.203125 313.824219 254.535156 L 355.097656 225.328125 C 361.769531 220.609375 366.914062 214.109375 369.976562 206.53125 L 388.910156 159.644531 C 391.285156 153.757812 396.921875 149.765625 403.269531 149.480469 L 453.78125 147.230469 C 461.949219 146.863281 469.789062 144.175781 476.460938 139.457031 L 517.734375 110.25 C 520.488281 108.300781 523.742188 107.273438 527.140625 107.273438 C 530.011719 107.273438 532.839844 108.03125 535.308594 109.464844 L 579.019531 134.878906 C 585.507812 138.652344 592.902344 140.640625 600.40625 140.640625 C 601.039062 140.640625 601.675781 140.628906 602.300781 140.601562 L 652.816406 138.347656 C 653.058594 138.339844 653.304688 138.328125 653.550781 138.328125 C 659.589844 138.328125 665.273438 141.804688 668.023438 147.1875 L 691.058594 192.199219 C 694.78125 199.476562 700.484375 205.492188 707.550781 209.601562 L 751.261719 235.011719 C 756.753906 238.207031 759.902344 244.351562 759.277344 250.671875 L 754.320312 300.996094 C 753.519531 309.125 755.0625 317.277344 758.785156 324.550781 L 781.820312 369.558594 C 784.714844 375.214844 784.035156 382.085938 780.097656 387.066406 L 748.71875 426.71875 C 743.648438 433.128906 740.546875 440.816406 739.746094 448.949219 L 734.785156 499.265625 C 734.160156 505.585938 729.875 511.003906 723.871094 513.0625 L 676.039062 529.457031 C 668.308594 532.105469 661.539062 536.894531 656.46875 543.304688 Z M 554.914062 602.5625 L 602.179688 614.179688 C 605.480469 614.992188 608.882812 615.402344 612.285156 615.402344 C 618.625 615.402344 625.007812 613.953125 630.738281 611.207031 C 636.546875 608.425781 641.71875 604.289062 645.703125 599.261719 L 677.078125 559.613281 C 678.34375 558.011719 679.921875 556.675781 681.703125 555.652344 L 763.214844 708.785156 L 694.621094 712.992188 C 690.820312 713.226562 687.3125 715.09375 684.992188 718.113281 L 643.199219 772.671875 L 553.785156 604.683594 Z M 408.703125 566.625 C 411.738281 567.371094 414.480469 568.964844 416.632812 571.234375 L 451.410156 607.929688 C 459.402344 616.367188 470.675781 621.203125 482.34375 621.203125 C 487.03125 621.203125 491.65625 620.433594 496.089844 618.914062 L 520.980469 610.382812 L 434.597656 772.671875 L 392.800781 718.113281 C 390.484375 715.09375 386.976562 713.226562 383.175781 712.992188 L 314.582031 708.785156 L 392.386719 562.617188 Z M 760.941406 501.84375 L 765.898438 451.527344 C 766.203125 448.414062 767.390625 445.476562 769.332031 443.023438 L 800.703125 403.375 C 811.011719 390.347656 812.785156 372.375 805.214844 357.585938 L 782.179688 312.578125 C 780.757812 309.792969 780.164062 306.679688 780.476562 303.570312 L 785.429688 253.253906 C 787.058594 236.71875 778.832031 220.640625 764.46875 212.292969 L 720.761719 186.878906 C 718.058594 185.3125 715.878906 183.011719 714.453125 180.230469 L 691.421875 135.21875 C 687.851562 128.246094 682.417969 122.394531 675.707031 118.296875 C 669.007812 114.210938 661.339844 112.050781 653.523438 112.050781 C 652.898438 112.050781 652.269531 112.0625 651.644531 112.089844 L 601.132812 114.34375 C 600.890625 114.359375 600.644531 114.363281 600.398438 114.363281 C 597.535156 114.363281 594.710938 113.601562 592.230469 112.160156 L 548.519531 86.746094 C 542.050781 82.984375 534.660156 81 527.148438 81 C 518.269531 81 509.765625 83.695312 502.554688 88.800781 L 461.28125 118.003906 C 458.730469 119.808594 455.730469 120.835938 452.609375 120.972656 L 402.097656 123.226562 C 385.5 123.96875 370.757812 134.40625 364.539062 149.804688 L 345.605469 196.691406 C 344.4375 199.585938 342.46875 202.070312 339.917969 203.875 L 298.644531 233.085938 C 285.082031 242.675781 278.324219 259.421875 281.414062 275.742188 L 290.835938 325.421875 C 291.417969 328.492188 291.105469 331.644531 289.9375 334.542969 L 271.003906 381.425781 C 264.785156 396.828125 268.148438 414.574219 279.578125 426.632812 L 314.355469 463.328125 C 316.507812 465.597656 317.949219 468.417969 318.535156 471.488281 L 327.953125 521.167969 C 331.046875 537.488281 343.472656 550.59375 359.605469 554.558594 L 366.058594 556.144531 L 281.78125 714.476562 C 279.667969 718.441406 279.71875 723.148438 281.910156 727.070312 C 284.105469 730.988281 288.09375 733.492188 292.574219 733.769531 L 375.582031 738.855469 L 426.160156 804.871094 C 428.628906 808.097656 432.53125 810.023438 436.59375 810.023438 C 436.960938 810.023438 437.328125 810.011719 437.679688 809.976562 C 442.148438 809.609375 446.082031 807.023438 448.191406 803.058594 L 538.898438 632.652344 L 629.605469 803.058594 C 631.714844 807.023438 635.648438 809.609375 640.121094 809.976562 C 640.46875 810.011719 640.835938 810.023438 641.203125 810.023438 C 645.265625 810.023438 649.164062 808.097656 651.632812 804.878906 L 702.210938 738.855469 L 785.222656 733.769531 C 789.703125 733.492188 793.6875 730.988281 795.882812 727.070312 C 798.074219 723.148438 798.125 718.441406 796.015625 714.476562 L 706.722656 546.722656 L 732.390625 537.925781 C 748.101562 532.539062 759.308594 518.375 760.941406 501.84375 "/></g><path style=" stroke:none;fill-rule:nonzero;fill:#ffffff;fill-opacity:1;" d="M 538.898438 502.683594 C 459.277344 502.683594 394.5 437.90625 394.5 358.285156 C 394.5 278.664062 459.277344 213.890625 538.898438 213.890625 C 618.519531 213.890625 683.296875 278.664062 683.296875 358.285156 C 683.296875 437.90625 618.519531 502.683594 538.898438 502.683594 Z M 538.898438 187.609375 C 444.785156 187.609375 368.21875 264.175781 368.21875 358.285156 C 368.21875 452.398438 444.785156 528.964844 538.898438 528.964844 C 633.011719 528.964844 709.574219 452.398438 709.574219 358.285156 C 709.574219 264.175781 633.011719 187.609375 538.898438 187.609375 "/><path style=" stroke:none;fill-rule:nonzero;fill:#ffffff;fill-opacity:1;" d="M 618.445312 292.320312 C 617.84375 291.710938 617.019531 291.375 616.167969 291.375 C 615.3125 291.375 614.492188 291.710938 613.886719 292.320312 L 516.835938 389.367188 L 463.910156 336.441406 C 463.28125 335.8125 462.457031 335.496094 461.628906 335.496094 C 460.804688 335.496094 459.980469 335.8125 459.347656 336.441406 L 445.324219 350.464844 C 444.71875 351.070312 444.378906 351.890625 444.378906 352.742188 C 444.378906 353.597656 444.71875 354.417969 445.324219 355.023438 L 514.558594 424.253906 C 515.160156 424.859375 515.980469 425.199219 516.835938 425.199219 C 517.691406 425.199219 518.511719 424.859375 519.117188 424.253906 L 632.46875 310.898438 C 633.730469 309.640625 633.730469 307.601562 632.46875 306.339844 L 618.445312 292.320312 "/></g></svg>